<?xml version="1.0" standalone="no"?>
<!DOCTYPE svg PUBLIC "-//W3C//DTD SVG 1.1//EN" "http://www.w3.org/Graphics/SVG/1.1/DTD/svg11.dtd" >
<svg>
<metadata>
Created by FontForge 20110222 at Mon Mar  7 08:35:06 2011
 By www-data
Created by : Michael H. Lee
</metadata>
<defs>
<font id="Vorlon" horiz-adv-x="600" >
  <font-face 
    font-family="Vorlon"
    font-weight="700"
    font-stretch="normal"
    units-per-em="1000"
    panose-1="2 0 8 0 0 0 0 0 0 0"
    ascent="800"
    descent="-200"
    x-height="575"
    cap-height="683"
    bbox="16 -243 1291 1102"
    underline-thickness="10"
    underline-position="-140"
    unicode-range="U+0020-2122"
  />
    <missing-glyph />
    <glyph glyph-name="space" unicode=" " 
 />
    <glyph glyph-name="space" unicode="&#xa0;" 
 />
    <glyph glyph-name="exclam" unicode="!" 
 />
    <glyph glyph-name="quotedbl" unicode="&#x22;" 
 />
    <glyph glyph-name="numbersign" unicode="#" 
 />
    <glyph glyph-name="dollar" unicode="$" horiz-adv-x="1329" 
d="M405 831l-389 -1074l346 663l-7 -362l250 348l-126 -324l148 66l53 157l174 91l-67 -182l463 220l41 125l-342 -177l165 503l-140 -89l-81 -266l-174 -79l230 651l-490 -744z" />
    <glyph glyph-name="percent" unicode="%" 
 />
    <glyph glyph-name="ampersand" unicode="&#x26;" 
 />
    <glyph glyph-name="quotesingle" unicode="'" 
 />
    <glyph glyph-name="parenleft" unicode="(" 
 />
    <glyph glyph-name="parenright" unicode=")" 
 />
    <glyph glyph-name="asterisk" unicode="*" 
 />
    <glyph glyph-name="plus" unicode="+" 
 />
    <glyph glyph-name="comma" unicode="," 
 />
    <glyph glyph-name="hyphen" unicode="-" 
 />
    <glyph glyph-name="period" unicode="." 
d="M314 289q34 0 58.5 24.5t24.5 56.5q0 31 -25.5 56.5t-59.5 25.5t-58.5 -25.5t-24.5 -56.5t25.5 -56t59.5 -25zM40 287q0 -17 13.5 -29.5t32.5 -12.5t33 12.5t14 29.5t-14 30t-33 13t-32.5 -13t-13.5 -30zM41 466q0 -17 14 -29.5t33 -12.5t32.5 12.5t13.5 29.5t-14.5 31
t-33.5 14q-18 0 -31.5 -14t-13.5 -31z" />
    <glyph glyph-name="slash" unicode="/" 
 />
    <glyph glyph-name="zero" unicode="0" horiz-adv-x="909" 
d="M229 245q23 0 37.5 14.5t14.5 35.5q0 22 -15 36.5t-38 14.5q-22 0 -38.5 -15t-16.5 -34q0 -22 17 -37t39 -15zM652 25q80 1 122.5 18.5t43.5 37.5q0 28 -41 47t-129 19q-82 0 -126.5 -17t-44.5 -48q0 -24 49.5 -40.5t125.5 -16.5zM45 332l95 1q0 16 10 29t27 22.5
t35 14.5t34 5q35 0 68.5 -29t33.5 -70q0 -45 -31.5 -75.5t-70.5 -30.5q44 -7 88 -9t100 -2q76 0 147.5 6.5t136 23.5t104.5 49t40 79q0 51 -40 83.5t-104.5 50t-138 23.5t-152.5 6q-67 0 -127.5 -5t-119 -22.5t-97 -54t-38.5 -95.5z" />
    <glyph glyph-name="one" unicode="1" horiz-adv-x="557" 
d="M214 148q0 18 -14.5 27.5t-34.5 11.5q-23 0 -37.5 -7t-16.5 -23q0 -14 16 -24t35 -12h4h4q17 0 30 7.5t14 19.5zM361 172l131 -105v525l-437 -289l118 -77q0 27 13 44.5t32.5 27t39 13t35.5 3.5q19 0 41 -2.5t44 -9t36.5 -20.5t14.5 -35v-1q1 -2 1 -4q0 -17 -20 -38
q-9 -9 -43 -28z" />
    <glyph glyph-name="two" unicode="2" horiz-adv-x="554" 
d="M368 229l131 -105v525l-437 -289l118 -77q0 27 13 44.5t32.5 27t39 13t35.5 3.5q19 0 41 -2.5t44 -9t36.5 -20.5t14.5 -35v-1q1 -2 1 -4q0 -17 -20 -38q-9 -9 -43 -28z" />
    <glyph glyph-name="three" unicode="3" horiz-adv-x="572" 
d="M214 148q0 18 -14.5 27.5t-34.5 11.5q-23 0 -37.5 -7t-16.5 -23q0 -14 16 -24t35 -12h4h4q17 0 30 7.5t14 19.5zM361 172l131 -105v525l-437 -289l118 -77q0 27 13 44.5t32.5 27t39 13t35.5 3.5q19 0 41 -2.5t44 -9t36.5 -20.5t14.5 -35v-1q1 -2 1 -4q0 -17 -20 -38
q-9 -9 -43 -28zM400 68q0 18 -14.5 27.5t-34.5 11.5q-23 0 -37.5 -7t-16.5 -23q0 -14 16 -24t35 -12h4h4q17 0 30 7.5t14 19.5z" />
    <glyph glyph-name="four" unicode="4" horiz-adv-x="560" 
d="M498 123l1 526l-437 -289z" />
    <glyph glyph-name="five" unicode="5" horiz-adv-x="896" 
d="M45 332l95 1q0 16 10 29t27 22.5t35 14.5t34 5q35 0 68.5 -29t33.5 -70q0 -45 -31.5 -75.5t-70.5 -30.5q44 -7 88 -9t100 -2q76 0 147.5 6.5t136 23.5t104.5 49t40 79q0 51 -40 83.5t-104.5 50t-138 23.5t-152.5 6q-67 0 -127.5 -5t-119 -22.5t-97 -54t-38.5 -95.5z
M652 25q80 1 122.5 18.5t43.5 37.5q0 28 -41 47t-129 19q-82 0 -126.5 -17t-44.5 -48q0 -24 49.5 -40.5t125.5 -16.5z" />
    <glyph glyph-name="six" unicode="6" horiz-adv-x="903" 
d="M434 188q76 0 147.5 6.5t136 23.5t104.5 49t40 79q0 51 -40 83.5t-104.5 50t-138 23.5t-152.5 6q-59 0 -123 -7t-124.5 -25t-99.5 -51.5t-39 -84.5q0 -47 40 -78t101.5 -47.5t126 -22t125.5 -5.5z" />
    <glyph glyph-name="seven" unicode="7" horiz-adv-x="896" 
d="M652 25q80 1 122.5 18.5t43.5 37.5q0 28 -41 47t-129 19q-82 0 -126.5 -17t-44.5 -48q0 -24 49.5 -40.5t125.5 -16.5zM434 188q76 0 147.5 6.5t136 23.5t104.5 49t40 79q0 51 -40 83.5t-104.5 50t-138 23.5t-152.5 6q-59 0 -123 -7t-124.5 -25t-99.5 -51.5t-39 -84.5
q0 -47 40 -78t101.5 -47.5t126 -22t125.5 -5.5z" />
    <glyph glyph-name="eight" unicode="8" horiz-adv-x="903" 
d="M45 332q0 59 38.5 95.5t97.5 54t119 22.5t127 5q79 0 153 -6t138 -23t104 -50t40 -84q0 -47 -40 -79t-104.5 -49t-136 -23.5t-147.5 -6.5q-56 0 -100 2t-88 9q39 0 70.5 30.5t31.5 75.5q0 41 -33.5 70t-68.5 29q-16 0 -34 -5t-35 -14.5t-27 -22.5t-10 -29z" />
    <glyph glyph-name="nine" unicode="9" horiz-adv-x="896" 
d="M45 332l95 1q0 16 10 29t27 22.5t35 14.5t34 5q35 0 68.5 -29t33.5 -70q0 -45 -31.5 -75.5t-70.5 -30.5q44 -7 88 -9t100 -2q76 0 147.5 6.5t136 23.5t104.5 49t40 79q0 51 -40 83.5t-104.5 50t-138 23.5t-152.5 6q-67 0 -127.5 -5t-119 -22.5t-97 -54t-38.5 -95.5z
M229 245q23 0 37.5 14.5t14.5 35.5q0 22 -15 36.5t-38 14.5q-22 0 -38.5 -15t-16.5 -34q0 -22 17 -37t39 -15z" />
    <glyph glyph-name="colon" unicode=":" 
 />
    <glyph glyph-name="semicolon" unicode=";" 
 />
    <glyph glyph-name="less" unicode="&#x3c;" 
 />
    <glyph glyph-name="equal" unicode="=" 
 />
    <glyph glyph-name="greater" unicode="&#x3e;" 
 />
    <glyph glyph-name="question" unicode="?" 
d="M314 289q34 0 58.5 24.5t24.5 56.5q0 31 -25.5 56.5t-59.5 25.5t-58.5 -25.5t-24.5 -56.5t25.5 -56t59.5 -25zM41 466q0 -17 14 -29.5t33 -12.5t32.5 12.5t13.5 29.5t-14.5 31t-33.5 14q-18 0 -31.5 -14t-13.5 -31zM38 640q0 -17 14 -31t32 -14q19 0 33.5 14t14.5 31
t-14.5 30t-33.5 13q-18 0 -32 -13t-14 -30z" />
    <glyph glyph-name="at" unicode="@" 
 />
    <glyph glyph-name="A" unicode="A" horiz-adv-x="899" 
d="M124 732q0 -1 -10 -15q-13 -19 -25 -37.5t-25.5 -45t-22 -56t-8.5 -57.5q0 -32 12 -59q0 -1 10.5 -22t26.5 -52.5t32 -62t18 -33.5q6 -6 27 -25.5t22 -21.5l13 -12q0 -1 9.5 -8.5t17.5 -14t16 -12t9 -5.5t10.5 -6t30.5 -21q11 -7 17.5 -11.5l6.5 -4.5l74 81q-1 0 -34 23
l-20 13l-24 21q-14 11 -18.5 14.5t-8.5 6.5q0 1 -4 10q-10 23 -20 48t-19 53q-5 15 -6 38.5t-1 99.5q0 14 4.5 34t10.5 40.5t12 36t8 20.5q4 12 15.5 38.5t25.5 55t26.5 48.5t18.5 20q-11 0 -47 -12t-77.5 -31.5t-71 -39.5t-31.5 -36zM440 305q29 0 49.5 20.5t20.5 46.5
t-20.5 46t-49.5 20t-49.5 -20t-20.5 -46t20.5 -46.5t49.5 -20.5zM442 170q-29 0 -49.5 -21t-20.5 -46q0 -26 22 -45.5t51 -19.5t48 19.5t19 45.5q0 27 -18.5 47t-51.5 20zM764 732q-2 16 -31.5 36.5t-71 39t-77.5 31t-47 12.5q6 0 18.5 -20t26.5 -48.5t25.5 -55t15.5 -38.5
q2 -5 8 -20.5t12.5 -36t10.5 -40.5t4 -34v-42q1 -20 1 -27q0 -24 -2 -39.5t-6 -29.5q-9 -28 -19.5 -54.5t-19.5 -46.5q-4 -9 -4 -10q-3 -2 -12 -9t-16.5 -13t-15 -12.5t-7.5 -7.5l-20 -13q-6 -4 -19.5 -13.5t-14.5 -9.5l74 -81q1 0 7 4.5t17 11.5q21 15 30.5 21t10.5 6t8 5
t17 12.5t18.5 14.5t8.5 8l13 12q43 41 49 47q2 2 18 33t32 62.5t26.5 52.5t10.5 22q12 27 12 59q0 28 -8.5 57.5t-21.5 55.5t-26 45.5l-25 37.5q-10 14 -10 15z" />
    <glyph glyph-name="B" unicode="B" horiz-adv-x="819" 
d="M125 359q29 0 49.5 18t20.5 43t-20.5 43t-49.5 18t-49.5 -18t-20.5 -43t20.5 -43t49.5 -18zM125 159q29 0 49.5 18t20.5 43t-20.5 43t-49.5 18t-49.5 -18t-20.5 -43t20.5 -43t49.5 -18zM344 157q29 0 49.5 18t20.5 43t-20.5 43t-49.5 18t-49.5 -18t-20.5 -43t20.5 -43
t49.5 -18zM542 167q-2 0 -22 -5.5t-41 -11t-38.5 -11t-21.5 -6.5q-5 -1 -48 -10q-24 -5 -45 -9.5t-23 -6.5q-6 -3 -39 -10q-41 -8 -56 -13q-3 -1 -19 -6q-24 -7 -39.5 -13t-18.5 -10q0 -4 19.5 -7t48.5 -6q18 -1 18 -2h-1h88q38 -1 52 -1q37 0 74.5 1.5t92.5 4.5
q78 5 140 21.5t62 23.5q3 1 9.5 5.5t15 13.5t15 24t6.5 34q0 15 -4.5 47.5t-9 62.5t-10 60.5t-8.5 41.5q-4 20 -16 44t-27.5 46.5t-29.5 39.5t-22 25q-28 33 -77.5 56t-106.5 35.5t-113.5 17.5t-107.5 5q29 0 73.5 -19.5t90.5 -50.5t82 -65.5t50 -62.5q20 -43 30 -77
q1 -1 7.5 -13t13 -28.5t11 -36.5t4.5 -39q0 -27 -11 -46q-6 -12 -18.5 -22t-25.5 -19z" />
    <glyph glyph-name="C" unicode="C" horiz-adv-x="822" 
d="M438 84q29 0 49.5 18t20.5 43t-20.5 43t-49.5 18t-49.5 -18t-20.5 -43t20.5 -43t49.5 -18zM109 473q29 0 49.5 18t20.5 43t-20.5 43t-49.5 18t-49.5 -18t-20.5 -43t20.5 -43t49.5 -18zM711 65l40 55q0 15 3 69q4 57 6 100t2 89q0 90 -11 157.5t-38 99.5q-31 38 -92.5 64
t-145 41t-177.5 21.5t-200 6.5l-47 -26l52 -30q93 0 168.5 -19t132.5 -50.5t99 -69.5t79 -84q28 -33 46.5 -84t28.5 -107t14 -105t4 -85z" />
    <glyph glyph-name="D" unicode="D" horiz-adv-x="926" 
d="M31 475q0 -14 11.5 -24.5t27.5 -10.5t27.5 10.5t11.5 24.5t-11.5 24.5t-27.5 10.5t-27.5 -10.5t-11.5 -24.5zM30 324q0 -14 11.5 -24.5t27.5 -10.5t27.5 10.5t11.5 24.5t-11.5 24.5t-27.5 10.5t-27.5 -10.5t-11.5 -24.5zM31 178q0 -14 11.5 -24.5t27.5 -10.5t27.5 10.5
t11.5 24.5t-11.5 24.5t-27.5 10.5t-27.5 -10.5t-11.5 -24.5zM834 54l49 107h-1q0 78 -37 149.5t-102.5 126.5t-150.5 86t-177 31q-53 0 -101.5 -18t-86.5 -51.5t-60 -81.5t-22 -106l26 -52q0 48 24.5 78.5t63 45t80 19t90.5 4.5q59 0 129.5 -23.5t133.5 -68t102.5 -108
t39.5 -138.5z" />
    <glyph glyph-name="E" unicode="E" horiz-adv-x="946" 
d="M185 528q0 -16 7 -23.5t33.5 -12t84.5 -6t169 -1.5q29 0 89.5 2t128.5 7t117 15.5t49 26.5q0 9 -28.5 16t-78 12.5t-109.5 8t-123 2.5q-169 0 -254 -10.5t-85 -36.5zM22 525q0 -14 11.5 -24.5t27.5 -10.5t27.5 10.5t11.5 24.5t-11.5 24.5t-27.5 10.5t-27.5 -10.5
t-11.5 -24.5zM192 350q0 -14 16 -21.5t52.5 -11.5t95.5 -5.5t158 -1.5q43 0 88 1t94 4.5t83.5 11.5t34.5 21q0 12 -34 21t-85 15.5t-97.5 9.5t-66.5 3q-62 0 -120.5 -2t-108.5 -7.5t-80 -15t-30 -22.5zM29 347q0 -14 11.5 -24.5t27.5 -10.5t27.5 10.5t11.5 24.5t-11.5 24.5
t-27.5 10.5t-27.5 -10.5t-11.5 -24.5zM35 167q0 -14 11.5 -24.5t27.5 -10.5t27.5 10.5t11.5 24.5t-11.5 24.5t-27.5 10.5t-27.5 -10.5t-11.5 -24.5zM198 170q0 -15 12 -23.5t47.5 -14t101.5 -8t182 -2.5q27 0 86 2t125 7t114.5 14.5t48.5 22.5q0 12 -48 21t-117 15.5
t-131 9.5t-82 3q-169 0 -254 -10.5t-85 -36.5z" />
    <glyph glyph-name="F" unicode="F" horiz-adv-x="586" 
d="M103 618q-14 0 -23 -16.5t-15 -57.5t-9 -113.5t-3 -188.5q0 -17 3 -53t9 -73t16 -63t24 -26q12 0 20.5 26.5t14 67t8 85t2.5 80.5q-1 170 -11 251t-36 81zM260 619q-25 0 -31.5 -69.5t-7.5 -254.5q0 -37 2 -83.5t7 -88.5t13.5 -70t20.5 -28q14 0 22 25.5t11.5 63.5
t4.5 69t1 59q0 122 -2 193.5t-6.5 111t-13 56t-21.5 16.5zM457 622q-13 0 -21 -16t-13 -57t-7 -113t-2 -191q0 -13 6.5 -47.5t14.5 -68.5t15 -62.5t10 -39.5q12 0 19.5 27.5t11 68t4.5 85.5t1 90q0 131 -14.5 213.5t-24.5 110.5zM454 797q-14 0 -24.5 -12t-10.5 -27
q0 -16 10.5 -27.5t24.5 -11.5q15 0 25 11.5t10 27.5t-10.5 27.5t-24.5 11.5z" />
    <glyph glyph-name="G" unicode="G" 
d="M490 110q-14 0 -24.5 -12t-10.5 -27q0 -16 10.5 -27.5t24.5 -11.5q15 0 25 11.5t10 27.5t-10.5 27.5t-24.5 11.5zM490 644q-13 0 -20 -7.5t-10.5 -31.5t-5 -71.5t-1.5 -138.5q0 -31 5 -71.5t12 -79.5t12 -62.5t7 -33.5q12 0 20 29.5t12.5 74t6.5 92.5t2 87q0 72 -1.5 112
t-5 62t-11.5 30.5t-22 8.5zM293 641q-25 0 -31.5 -69.5t-7.5 -254.5q0 -39 2 -84.5t7 -87.5t13.5 -70t20.5 -28q13 0 21.5 25.5t12 63.5t4.5 69t1 59q0 122 -2 193.5t-6.5 111t-13 56t-21.5 16.5zM136 640q-14 0 -23 -16.5t-15 -57.5t-9 -113.5t-3 -188.5q0 -17 3 -53.5
t9 -73t16 -62.5t24 -26q12 0 21 26.5t14 68t7.5 85t2.5 79.5q-1 170 -11 251t-36 81z" />
    <glyph glyph-name="H" unicode="H" horiz-adv-x="720" 
d="M544 198q-16 0 -28.5 -14t-12.5 -33t12.5 -33t29.5 -14q17 1 29.5 14.5t12.5 32.5q-1 20 -13.5 33.5t-29.5 13.5zM543 352q-17 0 -29 -13.5t-12 -33.5q0 -19 12.5 -33t29.5 -14t29.5 14t12.5 33q-1 19 -13.5 33t-29.5 14zM155 569q-15 0 -24.5 -24.5t-14.5 -68t-7 -100.5
t-2 -134q0 -23 2 -48.5t7 -50.5t15.5 -41.5t26.5 -16.5q30 0 38 25t8 106q-1 193 -9.5 273t-39.5 80zM350 534q-14 0 -22 -20.5t-12 -54.5t-5.5 -69.5t-1.5 -90.5l-1 -40q0 -96 6.5 -136t34.5 -40q17 0 27 10.5t15.5 28t7 36.5t1.5 40q0 57 -2 115.5t-7.5 108.5t-15.5 81
t-25 31zM543 503q-17 0 -29 -13.5t-12 -33.5q0 -19 12.5 -33t29.5 -14q17 1 29.5 14.5t12.5 32.5q-1 19 -13.5 33t-29.5 14z" />
    <glyph glyph-name="I" unicode="I" horiz-adv-x="541" 
d="M38 640q0 -17 14 -31t32 -14q19 0 33.5 14t14.5 31t-14.5 30t-33.5 13q-18 0 -32 -13t-14 -30zM41 466q0 -17 14 -29.5t33 -12.5t32.5 12.5t13.5 29.5t-14.5 31t-33.5 14q-18 0 -31.5 -14t-13.5 -31zM40 287q0 -17 13.5 -29.5t32.5 -12.5t33 12.5t14 29.5t-14 30t-33 13
t-32.5 -13t-13.5 -30zM314 289q34 0 58.5 24.5t24.5 56.5q0 31 -25.5 56.5t-59.5 25.5t-58.5 -25.5t-24.5 -56.5t25.5 -56t59.5 -25z" />
    <glyph glyph-name="J" unicode="J" horiz-adv-x="792" 
d="M173 756q0 -19 15.5 -32.5t35.5 -13.5q21 0 36.5 13.5t15.5 32.5t-15.5 33t-36.5 14q-20 0 -35.5 -14t-15.5 -33zM320 756q0 -19 15.5 -32.5t36.5 -13.5t36.5 13.5t15.5 32.5t-15.5 33t-36.5 14t-36.5 -14t-15.5 -33zM464 756q0 -19 15.5 -32.5t36.5 -13.5t36.5 13.5
t15.5 32.5t-15.5 33t-36.5 14t-36.5 -14t-15.5 -33zM157 68q-9 0 -19 84.5t-10 197.5q0 86 2 126.5t10 75.5q2 5 4 17q9 33 17.5 56.5t17.5 23.5q-33 0 -60.5 -24t-47 -66.5t-30 -97t-10.5 -113.5q0 -58 9.5 -109t27 -89.5t40.5 -60t49 -21.5zM301 70q-8 0 -15.5 77.5
t-7.5 196.5q0 29 -2 81q-2 41 -2 58q0 41 7 71q3 9 9 26t13.5 34t15.5 29.5t13 12.5q-33 0 -62.5 -25t-51.5 -68.5t-34 -98.5t-12 -114t10 -110t28 -89.5t41.5 -59.5t49.5 -21zM473 68q-4 0 -11.5 20.5t-14.5 57t-12 88t-5 108.5q0 80 2.5 126t11.5 85q0 1 4 15q8 34 16 58
t18 24q-33 0 -62.5 -24.5t-52.5 -67.5t-35.5 -97.5t-12.5 -113.5q0 -57 13.5 -108t36.5 -89.5t50.5 -60t53.5 -21.5zM647 68q-4 0 -13 21.5t-18.5 60t-16 88.5t-6.5 106q0 75 3.5 125t13.5 90l2 5q3 12 8 26t11 29t12.5 24.5t12.5 10.5q-33 0 -64 -24.5t-55 -67.5
t-37.5 -98.5t-13.5 -113.5q0 -56 14.5 -107.5t39 -91t53 -61.5t54.5 -22zM606 757q0 -18 15.5 -31.5t36.5 -13.5q20 0 35.5 13.5t15.5 31.5q0 19 -15.5 33t-35.5 14q-21 0 -36.5 -14t-15.5 -33z" />
    <glyph glyph-name="K" unicode="K" horiz-adv-x="785" 
d="M23 554q0 -16 14 -29t33 -13t32.5 12.5t13.5 29.5t-13.5 29.5t-32.5 12.5t-33 -12.5t-14 -29.5zM20 350q0 -16 14 -29t33 -13t33 13t14 29q0 17 -14 29.5t-33 12.5t-33 -12.5t-14 -29.5zM203 137q34 0 95 -2q65 -3 91 -3q48 0 85.5 5t65.5 17q26 11 56 27.5t56.5 32.5
t44 28.5t17.5 15.5l2.5 21.5t5.5 51t5.5 55.5t3.5 38q4 13 5.5 73.5t1.5 132.5q0 47 -0.5 81t-1.5 41q0 -54 -74.5 -122.5t-183 -131.5t-206 -104t-130.5 -41q20 0 47.5 -3t64.5 -9q36 -5 49.5 -6.5t22.5 -1.5q31 3 68 18.5t88 40.5l20 10q5 3 33 17q19 9 37 18t34 18t27 18
t12 16q0 -12 -2 -41t-5.5 -60.5t-8 -56t-9.5 -30.5t-19.5 -16t-36 -21.5t-38 -19.5t-47.5 -23l-26 -13q-18 -9 -41.5 -19.5t-59 -23t-74.5 -20.5t-75 -8zM22 144q0 -17 13.5 -29.5t32.5 -12.5q20 1 33.5 13.5t13.5 29.5t-14 29.5t-33 12.5t-32.5 -12.5t-13.5 -30.5z" />
    <glyph glyph-name="L" unicode="L" horiz-adv-x="719" 
d="M649 213q0 42 9 141q9 98 9 141q0 66 -15 100q-10 24 -25.5 49t-31 44t-28 31t-15.5 12q0 2 -27 5t-61 6.5t-67 6t-41 2.5q-11 3 -39.5 5t-69.5 3.5t-80.5 2t-74.5 0.5q-25 0 -62 -1h-12q72 0 145.5 -71.5t134.5 -174t99 -197.5t38 -130q0 18 1 40t3 56q3 67 3 88
q-4 35 -19 72t-40 88v1q-3 5 -17 30q-23 43 -41 70.5t-31 29.5q15 0 46.5 -0.5t67 -2t64 -5t33.5 -8.5q19 -10 34 -33.5t31 -55.5l6 -12q6 -13 18.5 -53.5t25 -91t21 -101.5t8.5 -87zM435 58q17 0 32.5 14.5t15.5 32.5q-1 18 -16.5 32.5t-32.5 14.5q-18 0 -33 -14.5
t-15 -33.5q0 -18 15.5 -32t33.5 -14zM231 60q17 0 31 13.5t14 32.5q0 18 -14.5 32.5t-31.5 14.5q-18 -1 -32 -15t-14 -32q1 -19 15 -32.5t32 -13.5z" />
    <glyph glyph-name="M" unicode="M" horiz-adv-x="589" 
d="M488 110q-14 0 -26 -12t-12 -27t12.5 -27t26.5 -12q15 0 26.5 12t11.5 27q0 16 -12 27.5t-27 11.5zM287 112q-14 0 -26 -12t-12 -27t12 -27t27 -12t26.5 12t11.5 27t-12 27t-27 12zM136 640q-12 0 -20 -20.5t-12.5 -51.5t-6 -62t-1.5 -55q0 -43 1 -88.5t4.5 -95
t11.5 -84.5t21 -35q10 2 16 27.5t9 68.5t4 92.5t1 121.5v21q1 20 1 34q0 23 -1.5 45.5t-4.5 41t-8.5 29.5t-14.5 11zM293 641q-13 0 -21 -21t-12.5 -51.5t-6 -54t-2.5 -53.5v-1q0 -47 1 -93.5t4.5 -94.5t11 -80t19.5 -32q14 0 22.5 37t13.5 89.5t6.5 98t1.5 70.5
q0 27 -1.5 58.5t-5.5 60.5t-12 48t-19 19zM490 644q-21 0 -28 -32t-7 -92q0 -14 5.5 -51.5t12.5 -75t12 -62.5t7 -37q12 0 19 27t10.5 68t4.5 84t1 92v6q-1 30 -6 46q-4 12 -11.5 19.5t-19.5 7.5zM136 111q-14 0 -26 -12t-12 -27t12.5 -27t26.5 -12q15 0 26.5 12t11.5 27
t-12 27t-27 12z" />
    <glyph glyph-name="N" unicode="N" horiz-adv-x="523" 
d="M417 107q-14 0 -26 -11.5t-12 -27.5q0 -15 12.5 -27t26.5 -12q15 0 26.5 12t11.5 27q0 16 -12 27.5t-27 11.5zM275 339q-14 0 -26 -12t-12 -27t12 -27t27 -12t26.5 12t11.5 27t-12 27t-27 12zM145 108q-14 0 -26 -11.5t-12 -27.5q0 -15 12.5 -27t26.5 -12q15 0 26.5 12
t11.5 27q0 16 -12 27.5t-27 11.5z" />
    <glyph glyph-name="O" unicode="O" horiz-adv-x="427" 
d="M316 800q-14 0 -25 -11.5t-11 -26.5t11 -26t25 -11t24.5 10.5t10.5 26.5t-10.5 27t-24.5 11zM319 625q-12 0 -20 -22.5t-13 -59t-7 -79t-2 -87.5q0 -13 5.5 -48t12.5 -73t13.5 -73t9.5 -48q12 0 19.5 24t11 60t4.5 77t1 85q0 20 -5 58t-11.5 78.5t-11.5 68.5t-7 39z
M122 622q-25 0 -31.5 -69.5t-7.5 -254.5q0 -37 2 -83.5t7 -88.5t13.5 -70t20.5 -28q14 0 22 25.5t11.5 63.5t4.5 69t1 59q0 122 -2 193.5t-6.5 111t-13 56t-21.5 16.5z" />
    <glyph glyph-name="P" unicode="P" horiz-adv-x="537" 
d="M496 830q-27 0 -55.5 -21.5t-53 -59.5t-39.5 -89t-15 -107q0 -59 12.5 -113.5t35 -97.5t52.5 -67.5t63 -24.5q-10 1 -18 23.5t-16 58.5q-4 14 -4 15q-9 39 -11.5 85t-2.5 126q0 57 6.5 108t15 87t17.5 56.5t13 20.5zM315 830q-26 0 -49.5 -21t-41.5 -59.5t-28 -89.5
t-10 -110t12 -114t34 -98.5t51.5 -68.5t62.5 -25q-5 0 -12.5 12t-16 30.5t-13 32t-9.5 27.5q-10 42 -14 90t-4 117q0 56 4 107t10.5 89t13 59.5t10.5 21.5zM171 832q-26 0 -49 -21.5t-40.5 -60t-27 -89.5t-9.5 -109q0 -59 10.5 -113.5t30 -97t47 -66.5t60.5 -24
q-9 1 -17 22.5t-18 58.5q-2 11 -4 16q-8 36 -10 76.5t-2 125.5q0 113 10 197.5t19 84.5zM334 144q0 -19 15.5 -33t36.5 -14t36.5 14t15.5 33t-15.5 32.5t-36.5 13.5t-36.5 -13.5t-15.5 -32.5zM187 144q0 -19 15.5 -33t35.5 -14q21 0 36.5 14t15.5 33t-15.5 32.5t-36.5 13.5
q-20 0 -35.5 -13.5t-15.5 -32.5z" />
    <glyph glyph-name="Q" unicode="Q" 
d="M136 111q-14 0 -26 -12t-12 -27t12.5 -27t26.5 -12q15 0 26.5 12t11.5 27t-12 27t-27 12zM293 641q-13 0 -21 -21t-12.5 -51.5t-6 -54t-2.5 -53.5v-1q0 -47 1 -93.5t4.5 -94.5t11 -80t19.5 -32q14 0 22.5 37t13.5 89.5t6.5 98t1.5 70.5q0 27 -1.5 58.5t-5.5 60.5t-12 48
t-19 19zM136 640q-12 0 -20 -20.5t-12.5 -51.5t-6 -62t-1.5 -55q0 -43 1 -88.5t4.5 -95t11.5 -84.5t21 -35q10 2 16 27.5t9 68.5t4 92.5t1 121.5v21q1 20 1 34q0 23 -1.5 45.5t-4.5 41t-8.5 29.5t-14.5 11zM287 112q-14 0 -26 -12t-12 -27t12 -27t27 -12t26.5 12t11.5 27
t-12 27t-27 12zM488 110q-14 0 -26 -12t-12 -27t12.5 -27t26.5 -12q15 0 26.5 12t11.5 27q0 16 -12 27.5t-27 11.5z" />
    <glyph glyph-name="R" unicode="R" horiz-adv-x="853" 
d="M128 618q36 0 65 -20t51.5 -55.5t40 -78.5t40.5 -110q9 -27 22 -64q12 -37 21 -64q3 -12 13 -35t15 -39t5 -35q0 28 7.5 59t23.5 82q17 56 24 86q25 106 62 212.5t81.5 196t92.5 143.5t95 54q-65 0 -129.5 -42.5t-116 -103.5t-83.5 -115.5t-32 -70.5h-298zM132 59
q0 -17 13.5 -29.5t32.5 -12.5q20 1 33.5 13.5t13.5 29.5t-14 29.5t-33 12.5t-32.5 -12.5t-13.5 -30.5zM362 65q0 -16 14 -29t33 -13q18 0 29.5 13t11.5 30t-11.5 28.5t-29.5 12.5q-19 0 -33 -12.5t-14 -29.5z" />
    <glyph glyph-name="S" unicode="S" horiz-adv-x="799" 
d="M215 212l107 -50h-12q80 0 158.5 24t142 71.5t101.5 118.5t38 161q0 95 -34 164t-83 111t-96.5 61.5t-74.5 20.5h-93l-103 -23l-80 -49q114 0 188 -34t112 -83t51.5 -94t13.5 -75q-1 -48 -24 -104.5t-67 -106.5t-106.5 -81.5t-138.5 -31.5zM67 860q-15 0 -25.5 -11.5
t-10.5 -26.5q0 -16 10 -27t25 -12q15 1 24.5 12t10.5 27q0 15 -10 26.5t-24 11.5zM66 317q-14 0 -24 -11t-11 -27q0 -16 10 -27.5t24 -11.5q15 0 25.5 11.5t10.5 26.5q0 16 -10 27.5t-25 11.5zM300 94q-15 0 -25 -11.5t-11 -26.5q1 -16 11.5 -28t23.5 -12q15 0 25 11.5
t10 27.5t-10 27.5t-24 11.5z" />
    <glyph glyph-name="T" unicode="T" horiz-adv-x="980" 
d="M47 529q0 -17 13.5 -29.5t32.5 -12.5q20 1 33.5 13.5t13.5 29.5t-14 29.5t-33 12.5t-32.5 -12.5t-13.5 -30.5zM246 77q30 -6 60 -6q44 0 83 12.5t68.5 31.5t49 37t38.5 38q12 12 14 13q10 2 47 44t83 99.5t81.5 105.5t40.5 59q5 0 16 22t24.5 54t24 59.5t13.5 37.5
q20 40 31 83.5t12 117.5q-3 -11 -35 -18t-86 -11.5t-117 -6.5t-135 -2q-52 0 -106.5 1t-102.5 2.5t-75 3.5t-33 3q1 0 2 -7q3 -11 7.5 -23t12.5 -25.5t22.5 -24t33.5 -14.5q15 -2 45.5 -4t69.5 -3.5t73 -2.5t57 -1q9 0 26 1h5h3q9 1 15 1h30q36 -1 51 -1q44 0 72.5 3.5
t32.5 12.5q-2 -9 -15.5 -38t-30.5 -61t-32 -58.5t-18 -28.5q-3 -3 -23 -36q-11 -18 -16 -25.5t-7 -9.5q-18 -27 -62 -88.5t-110 -143.5t-130.5 -143t-102.5 -61q-2 0 -4 1h-3zM46 796q0 -16 14 -29t33 -13t33 13t14 29q0 17 -14 29.5t-33 12.5t-33 -12.5t-14 -29.5zM338 530
q0 -16 14 -29t33 -13t32.5 12.5t13.5 29.5t-13.5 29.5t-32.5 12.5t-33 -12.5t-14 -29.5z" />
    <glyph glyph-name="U" unicode="U" horiz-adv-x="797" 
d="M52 893q-15 0 -25 -11.5t-11 -26.5q1 -16 11.5 -28t23.5 -12q15 0 25 11.5t10 27.5t-10 27.5t-24 11.5zM55 193q-14 0 -24 -11t-11 -27q0 -16 10 -27.5t24 -11.5q15 0 25.5 11.5t10.5 26.5q0 16 -10 27.5t-25 11.5zM57 613q-15 0 -25.5 -11.5t-10.5 -26.5q0 -16 10 -27
t25 -12q15 1 24.5 12t10.5 27q0 15 -10 26.5t-24 11.5zM204 88l107 -50h-12q80 0 158.5 24t142 71.5t101.5 118.5t38 161q0 95 -34 164t-83 111t-96.5 61.5t-74.5 20.5h-93l-103 -23l-80 -49q114 0 188 -34t112 -83t51.5 -94t13.5 -75q-1 -48 -24 -104.5t-67 -106.5
t-106.5 -81.5t-138.5 -31.5z" />
    <glyph glyph-name="V" unicode="V" horiz-adv-x="946" 
d="M323 402q-22 0 -37.5 -15.5t-15.5 -37.5t15.5 -37.5t37.5 -15.5t37.5 15.5t15.5 37.5t-15.5 37.5t-37.5 15.5zM198 170q0 -15 12 -23.5t47.5 -14t101.5 -8t182 -2.5q27 0 86 2t125 7t114.5 14.5t48.5 22.5q0 12 -48 21t-117 15.5t-131 9.5t-82 3q-169 0 -254 -10.5
t-85 -36.5zM185 528q0 -16 7 -23.5t33.5 -12t84.5 -6t169 -1.5q29 0 89.5 2t128.5 7t117 15.5t49 26.5q0 9 -28.5 16t-78 12.5t-109.5 8t-123 2.5q-169 0 -254 -10.5t-85 -36.5z" />
    <glyph glyph-name="W" unicode="W" 
d="M462 641q-21 0 -28 -32t-7 -92q-3 -56 -3 -110q0 -35 5 -70.5t11.5 -65.5t11.5 -47t7 -23q11 0 18 24.5t11 66.5t5.5 87t4.5 131q0 18 1 52v5q-1 31 -6 46q-4 13 -11.5 20.5t-19.5 7.5zM293 641q-13 0 -21 -21t-12.5 -51.5t-6 -54t-2.5 -53.5v-1q0 -33 1 -74t4.5 -86
t11 -76t19.5 -31q14 0 22.5 36t13.5 85.5t6.5 89t1.5 51.5q0 27 -1.5 58.5t-5.5 60.5t-12 48t-19 19zM136 640q-12 0 -20 -20.5t-12.5 -51.5t-6 -62t-1.5 -55q0 -29 1 -68.5t4.5 -86t11.5 -81t21 -34.5q10 2 16 27t9 64.5t4 83t1 102.5v21q1 20 1 34q0 23 -1.5 45.5t-4.5 41
t-8.5 29.5t-14.5 11zM460 109q-14 0 -26 -12t-12 -27q0 -16 12.5 -27.5t26.5 -11.5q15 0 26.5 11.5t11.5 27.5q0 15 -12 27t-27 12z" />
    <glyph glyph-name="X" unicode="X" 
d="M137 112q-14 0 -26 -12t-12 -27q0 -16 12.5 -27.5t26.5 -11.5q15 0 26.5 11.5t11.5 27.5q0 15 -12 27t-27 12zM287 106q-14 0 -26 -12t-12 -27q0 -16 12.5 -27.5t26.5 -11.5q15 0 26.5 11.5t11.5 27.5q0 15 -12 27t-27 12zM136 640q-12 0 -20 -20.5t-12.5 -51.5t-6 -62
t-1.5 -55q0 -29 1 -68.5t4.5 -86t11.5 -81t21 -34.5q10 2 16 27t9 64.5t4 83t1 102.5v21q1 20 1 34q0 23 -1.5 45.5t-4.5 41t-8.5 29.5t-14.5 11zM293 641q-13 0 -21 -21t-12.5 -51.5t-6 -54t-2.5 -53.5v-1q0 -33 1 -74t4.5 -86t11 -76t19.5 -31q14 0 22.5 36t13.5 85.5
t6.5 89t1.5 51.5q0 27 -1.5 58.5t-5.5 60.5t-12 48t-19 19zM462 641q-21 0 -28 -32t-7 -92q-3 -56 -3 -110q0 -35 5 -70.5t11.5 -65.5t11.5 -47t7 -23q11 0 18 24.5t11 66.5t5.5 87t4.5 131q0 18 1 52v5q-1 31 -6 46q-4 13 -11.5 20.5t-19.5 7.5z" />
    <glyph glyph-name="Y" unicode="Y" horiz-adv-x="946" 
d="M198 170q0 -15 12 -23.5t47.5 -14t101.5 -8t182 -2.5q27 0 86 2t125 7t114.5 14.5t48.5 22.5q0 12 -48 21t-117 15.5t-131 9.5t-82 3q-169 0 -254 -10.5t-85 -36.5zM29 347q0 -14 11.5 -24.5t27.5 -10.5t27.5 10.5t11.5 24.5t-11.5 24.5t-27.5 10.5t-27.5 -10.5
t-11.5 -24.5zM192 350q0 -14 16 -21.5t52.5 -11.5t95.5 -5.5t158 -1.5q43 0 88 1t94 4.5t83.5 11.5t34.5 21q0 12 -34 21t-85 15.5t-97.5 9.5t-66.5 3q-62 0 -120.5 -2t-108.5 -7.5t-80 -15t-30 -22.5zM22 525q0 -14 11.5 -24.5t27.5 -10.5t27.5 10.5t11.5 24.5t-11.5 24.5
t-27.5 10.5t-27.5 -10.5t-11.5 -24.5zM185 528q0 -16 7 -23.5t33.5 -12t84.5 -6t169 -1.5q29 0 89.5 2t128.5 7t117 15.5t49 26.5q0 9 -28.5 16t-78 12.5t-109.5 8t-123 2.5q-169 0 -254 -10.5t-85 -36.5z" />
    <glyph glyph-name="Z" unicode="Z" horiz-adv-x="815" 
d="M438 358q34 0 58.5 24.5t24.5 56.5q0 31 -25.5 56.5t-59.5 25.5t-58.5 -25.5t-24.5 -56.5t25.5 -56t59.5 -25zM711 65l40 55q0 15 3 69q4 57 6 100t2 89q0 90 -11 157.5t-38 99.5q-31 38 -92.5 64t-145 41t-177.5 21.5t-200 6.5l-47 -26l52 -30q93 0 168.5 -19
t132.5 -50.5t99 -69.5t79 -84q28 -33 46.5 -84t28.5 -107t14 -105t4 -85zM109 473q29 0 49.5 18t20.5 43t-20.5 43t-49.5 18t-49.5 -18t-20.5 -43t20.5 -43t49.5 -18zM438 84q29 0 49.5 18t20.5 43t-20.5 43t-49.5 18t-49.5 -18t-20.5 -43t20.5 -43t49.5 -18z" />
    <glyph glyph-name="bracketleft" unicode="[" 
 />
    <glyph glyph-name="backslash" unicode="\" 
 />
    <glyph glyph-name="bracketright" unicode="]" 
 />
    <glyph glyph-name="asciicircum" unicode="^" 
 />
    <glyph glyph-name="underscore" unicode="_" 
 />
    <glyph glyph-name="grave" unicode="`" 
 />
    <glyph glyph-name="a" unicode="a" horiz-adv-x="899" 
d="M764 732q-2 16 -31.5 36.5t-71 39t-77.5 31t-47 12.5q6 0 18.5 -20t26.5 -48.5t25.5 -55t15.5 -38.5q2 -5 8 -20.5t12.5 -36t10.5 -40.5t4 -34v-42q1 -20 1 -27q0 -24 -2 -39.5t-6 -29.5q-9 -28 -19.5 -54.5t-19.5 -46.5q-4 -9 -4 -10q-3 -2 -12 -9t-16.5 -13t-15 -12.5
t-7.5 -7.5l-20 -13q-6 -4 -19.5 -13.5t-14.5 -9.5l74 -81q1 0 7 4.5t17 11.5q21 15 30.5 21t10.5 6t8 5t17 12.5t18.5 14.5t8.5 8l13 12q43 41 49 47q2 2 18 33t32 62.5t26.5 52.5t10.5 22q12 27 12 59q0 28 -8.5 57.5t-21.5 55.5t-26 45.5l-25 37.5q-10 14 -10 15zM442 170
q-29 0 -49.5 -21t-20.5 -46q0 -26 22 -45.5t51 -19.5t48 19.5t19 45.5q0 27 -18.5 47t-51.5 20zM440 305q29 0 49.5 20.5t20.5 46.5t-20.5 46t-49.5 20t-49.5 -20t-20.5 -46t20.5 -46.5t49.5 -20.5zM124 732q0 -1 -10 -15q-13 -19 -25 -37.5t-25.5 -45t-22 -56t-8.5 -57.5
q0 -32 12 -59q0 -1 10.5 -22t26.5 -52.5t32 -62t18 -33.5q6 -6 27 -25.5t22 -21.5l13 -12q0 -1 9.5 -8.5t17.5 -14t16 -12t9 -5.5t10.5 -6t30.5 -21q11 -7 17.5 -11.5l6.5 -4.5l74 81q-1 0 -34 23l-20 13l-24 21q-14 11 -18.5 14.5t-8.5 6.5q0 1 -4 10q-10 23 -20 48t-19 53
q-5 15 -6 38.5t-1 99.5q0 14 4.5 34t10.5 40.5t12 36t8 20.5q4 12 15.5 38.5t25.5 55t26.5 48.5t18.5 20q-11 0 -47 -12t-77.5 -31.5t-71 -39.5t-31.5 -36z" />
    <glyph glyph-name="b" unicode="b" horiz-adv-x="822" 
d="M542 167q-2 0 -22 -5.5t-41 -11t-38.5 -11t-21.5 -6.5q-5 -1 -48 -10q-24 -5 -45 -9.5t-23 -6.5q-6 -3 -39 -10q-41 -8 -56 -13q-3 -1 -19 -6q-24 -7 -39.5 -13t-18.5 -10q0 -4 19.5 -7t48.5 -6q18 -1 18 -2h-1h88q38 -1 52 -1q37 0 74.5 1.5t92.5 4.5q78 5 140 21.5
t62 23.5q3 1 9.5 5.5t15 13.5t15 24t6.5 34q0 15 -4.5 47.5t-9 62.5t-10 60.5t-8.5 41.5q-4 20 -16 44t-27.5 46.5t-29.5 39.5t-22 25q-28 33 -77.5 56t-106.5 35.5t-113.5 17.5t-107.5 5q29 0 73.5 -19.5t90.5 -50.5t82 -65.5t50 -62.5q20 -43 30 -77q1 -1 7.5 -13
t13 -28.5t11 -36.5t4.5 -39q0 -27 -11 -46q-6 -12 -18.5 -22t-25.5 -19zM344 157q29 0 49.5 18t20.5 43t-20.5 43t-49.5 18t-49.5 -18t-20.5 -43t20.5 -43t49.5 -18zM125 159q29 0 49.5 18t20.5 43t-20.5 43t-49.5 18t-49.5 -18t-20.5 -43t20.5 -43t49.5 -18zM125 359
q29 0 49.5 18t20.5 43t-20.5 43t-49.5 18t-49.5 -18t-20.5 -43t20.5 -43t49.5 -18z" />
    <glyph glyph-name="c" unicode="c" horiz-adv-x="797" 
d="M711 65l40 55q0 15 3 69q4 57 6 100t2 89q0 90 -11 157.5t-38 99.5q-31 38 -92.5 64t-145 41t-177.5 21.5t-200 6.5l-47 -26l52 -30q93 0 168.5 -19t132.5 -50.5t99 -69.5t79 -84q28 -33 46.5 -84t28.5 -107t14 -105t4 -85zM109 473q29 0 49.5 18t20.5 43t-20.5 43
t-49.5 18t-49.5 -18t-20.5 -43t20.5 -43t49.5 -18zM438 84q29 0 49.5 18t20.5 43t-20.5 43t-49.5 18t-49.5 -18t-20.5 -43t20.5 -43t49.5 -18z" />
    <glyph glyph-name="d" unicode="d" horiz-adv-x="934" 
d="M834 54l49 107h-1q0 78 -37 149.5t-102.5 126.5t-150.5 86t-177 31q-53 0 -101.5 -18t-86.5 -51.5t-60 -81.5t-22 -106l26 -52q0 48 24.5 78.5t63 45t80 19t90.5 4.5q59 0 129.5 -23.5t133.5 -68t102.5 -108t39.5 -138.5zM31 178q0 -14 11.5 -24.5t27.5 -10.5t27.5 10.5
t11.5 24.5t-11.5 24.5t-27.5 10.5t-27.5 -10.5t-11.5 -24.5zM30 324q0 -14 11.5 -24.5t27.5 -10.5t27.5 10.5t11.5 24.5t-11.5 24.5t-27.5 10.5t-27.5 -10.5t-11.5 -24.5zM31 475q0 -14 11.5 -24.5t27.5 -10.5t27.5 10.5t11.5 24.5t-11.5 24.5t-27.5 10.5t-27.5 -10.5
t-11.5 -24.5z" />
    <glyph glyph-name="e" unicode="e" horiz-adv-x="952" 
d="M198 170q0 -15 12 -23.5t47.5 -14t101.5 -8t182 -2.5q27 0 86 2t125 7t114.5 14.5t48.5 22.5q0 12 -48 21t-117 15.5t-131 9.5t-82 3q-169 0 -254 -10.5t-85 -36.5zM35 167q0 -14 11.5 -24.5t27.5 -10.5t27.5 10.5t11.5 24.5t-11.5 24.5t-27.5 10.5t-27.5 -10.5
t-11.5 -24.5zM29 347q0 -14 11.5 -24.5t27.5 -10.5t27.5 10.5t11.5 24.5t-11.5 24.5t-27.5 10.5t-27.5 -10.5t-11.5 -24.5zM192 350q0 -14 16 -21.5t52.5 -11.5t95.5 -5.5t158 -1.5q43 0 88 1t94 4.5t83.5 11.5t34.5 21q0 12 -34 21t-85 15.5t-97.5 9.5t-66.5 3
q-62 0 -120.5 -2t-108.5 -7.5t-80 -15t-30 -22.5zM22 525q0 -14 11.5 -24.5t27.5 -10.5t27.5 10.5t11.5 24.5t-11.5 24.5t-27.5 10.5t-27.5 -10.5t-11.5 -24.5zM185 528q0 -16 7 -23.5t33.5 -12t84.5 -6t169 -1.5q29 0 89.5 2t128.5 7t117 15.5t49 26.5q0 9 -28.5 16
t-78 12.5t-109.5 8t-123 2.5q-169 0 -254 -10.5t-85 -36.5z" />
    <glyph glyph-name="f" unicode="f" 
d="M454 797q-14 0 -24.5 -12t-10.5 -27q0 -16 10.5 -27.5t24.5 -11.5q15 0 25 11.5t10 27.5t-10.5 27.5t-24.5 11.5zM457 622q-13 0 -21 -16t-13 -57t-7 -113t-2 -191q0 -13 6.5 -47.5t14.5 -68.5t15 -62.5t10 -39.5q12 0 19.5 27.5t11 68t4.5 85.5t1 90q0 131 -14.5 213.5
t-24.5 110.5zM260 619q-25 0 -31.5 -69.5t-7.5 -254.5q0 -37 2 -83.5t7 -88.5t13.5 -70t20.5 -28q14 0 22 25.5t11.5 63.5t4.5 69t1 59q0 122 -2 193.5t-6.5 111t-13 56t-21.5 16.5zM103 618q-14 0 -23 -16.5t-15 -57.5t-9 -113.5t-3 -188.5q0 -17 3 -53t9 -73t16 -63
t24 -26q12 0 20.5 26.5t14 67t8 85t2.5 80.5q-1 170 -11 251t-36 81z" />
    <glyph glyph-name="g" unicode="g" 
d="M136 640q-14 0 -23 -16.5t-15 -57.5t-9 -113.5t-3 -188.5q0 -17 3 -53.5t9 -73t16 -62.5t24 -26q12 0 21 26.5t14 68t7.5 85t2.5 79.5q-1 170 -11 251t-36 81zM293 641q-25 0 -31.5 -69.5t-7.5 -254.5q0 -39 2 -84.5t7 -87.5t13.5 -70t20.5 -28q13 0 21.5 25.5t12 63.5
t4.5 69t1 59q0 122 -2 193.5t-6.5 111t-13 56t-21.5 16.5zM490 644q-13 0 -20 -7.5t-10.5 -31.5t-5 -71.5t-1.5 -138.5q0 -31 5 -71.5t12 -79.5t12 -62.5t7 -33.5q12 0 20 29.5t12.5 74t6.5 92.5t2 87q0 72 -1.5 112t-5 62t-11.5 30.5t-22 8.5zM490 110q-14 0 -24.5 -12
t-10.5 -27q0 -16 10.5 -27.5t24.5 -11.5q15 0 25 11.5t10 27.5t-10.5 27.5t-24.5 11.5z" />
    <glyph glyph-name="h" unicode="h" horiz-adv-x="622" 
d="M543 503q-17 0 -29 -13.5t-12 -33.5q0 -19 12.5 -33t29.5 -14q17 1 29.5 14.5t12.5 32.5q-1 19 -13.5 33t-29.5 14zM350 534q-14 0 -22 -20.5t-12 -54.5t-5.5 -69.5t-1.5 -90.5l-1 -40q0 -96 6.5 -136t34.5 -40q17 0 27 10.5t15.5 28t7 36.5t1.5 40q0 57 -2 115.5
t-7.5 108.5t-15.5 81t-25 31zM155 569q-15 0 -24.5 -24.5t-14.5 -68t-7 -100.5t-2 -134q0 -23 2 -48.5t7 -50.5t15.5 -41.5t26.5 -16.5q30 0 38 25t8 106q-1 193 -9.5 273t-39.5 80zM543 352q-17 0 -29 -13.5t-12 -33.5q0 -19 12.5 -33t29.5 -14t29.5 14t12.5 33
q-1 19 -13.5 33t-29.5 14zM544 198q-16 0 -28.5 -14t-12.5 -33t12.5 -33t29.5 -14q17 1 29.5 14.5t12.5 32.5q-1 20 -13.5 33.5t-29.5 13.5z" />
    <glyph glyph-name="i" unicode="i" horiz-adv-x="479" 
d="M314 289q34 0 58.5 24.5t24.5 56.5q0 31 -25.5 56.5t-59.5 25.5t-58.5 -25.5t-24.5 -56.5t25.5 -56t59.5 -25zM40 287q0 -17 13.5 -29.5t32.5 -12.5t33 12.5t14 29.5t-14 30t-33 13t-32.5 -13t-13.5 -30zM41 466q0 -17 14 -29.5t33 -12.5t32.5 12.5t13.5 29.5t-14.5 31
t-33.5 14q-18 0 -31.5 -14t-13.5 -31zM38 640q0 -17 14 -31t32 -14q19 0 33.5 14t14.5 31t-14.5 30t-33.5 13q-18 0 -32 -13t-14 -30z" />
    <glyph glyph-name="j" unicode="j" horiz-adv-x="753" 
d="M606 757q0 -18 15.5 -31.5t36.5 -13.5q20 0 35.5 13.5t15.5 31.5q0 19 -15.5 33t-35.5 14q-21 0 -36.5 -14t-15.5 -33zM647 68q-4 0 -13 21.5t-18.5 60t-16 88.5t-6.5 106q0 75 3.5 125t13.5 90l2 5q3 12 8 26t11 29t12.5 24.5t12.5 10.5q-33 0 -64 -24.5t-55 -67.5
t-37.5 -98.5t-13.5 -113.5q0 -56 14.5 -107.5t39 -91t53 -61.5t54.5 -22zM473 68q-4 0 -11.5 20.5t-14.5 57t-12 88t-5 108.5q0 80 2.5 126t11.5 85q0 1 4 15q8 34 16 58t18 24q-33 0 -62.5 -24.5t-52.5 -67.5t-35.5 -97.5t-12.5 -113.5q0 -57 13.5 -108t36.5 -89.5
t50.5 -60t53.5 -21.5zM301 70q-8 0 -15.5 77.5t-7.5 196.5q0 29 -2 81q-2 41 -2 58q0 41 7 71q3 9 9 26t13.5 34t15.5 29.5t13 12.5q-33 0 -62.5 -25t-51.5 -68.5t-34 -98.5t-12 -114t10 -110t28 -89.5t41.5 -59.5t49.5 -21zM157 68q-9 0 -19 84.5t-10 197.5q0 86 2 126.5
t10 75.5q2 5 4 17q9 33 17.5 56.5t17.5 23.5q-33 0 -60.5 -24t-47 -66.5t-30 -97t-10.5 -113.5q0 -58 9.5 -109t27 -89.5t40.5 -60t49 -21.5zM464 756q0 -19 15.5 -32.5t36.5 -13.5t36.5 13.5t15.5 32.5t-15.5 33t-36.5 14t-36.5 -14t-15.5 -33zM320 756q0 -19 15.5 -32.5
t36.5 -13.5t36.5 13.5t15.5 32.5t-15.5 33t-36.5 14t-36.5 -14t-15.5 -33zM173 756q0 -19 15.5 -32.5t35.5 -13.5q21 0 36.5 13.5t15.5 32.5t-15.5 33t-36.5 14q-20 0 -35.5 -14t-15.5 -33z" />
    <glyph glyph-name="k" unicode="k" horiz-adv-x="785" 
d="M22 144q0 -17 13.5 -29.5t32.5 -12.5q20 1 33.5 13.5t13.5 29.5t-14 29.5t-33 12.5t-32.5 -12.5t-13.5 -30.5zM203 137q34 0 95 -2q65 -3 91 -3q48 0 85.5 5t65.5 17q26 11 56 27.5t56.5 32.5t44 28.5t17.5 15.5l2.5 21.5t5.5 51t5.5 55.5t3.5 38q4 13 5.5 73.5
t1.5 132.5q0 47 -0.5 81t-1.5 41q0 -54 -74.5 -122.5t-183 -131.5t-206 -104t-130.5 -41q20 0 47.5 -3t64.5 -9q36 -5 49.5 -6.5t22.5 -1.5q31 3 68 18.5t88 40.5l20 10q5 3 33 17q19 9 37 18t34 18t27 18t12 16q0 -12 -2 -41t-5.5 -60.5t-8 -56t-9.5 -30.5t-19.5 -16
t-36 -21.5t-38 -19.5t-47.5 -23l-26 -13q-18 -9 -41.5 -19.5t-59 -23t-74.5 -20.5t-75 -8zM20 350q0 -16 14 -29t33 -13t33 13t14 29q0 17 -14 29.5t-33 12.5t-33 -12.5t-14 -29.5zM23 554q0 -16 14 -29t33 -13t32.5 12.5t13.5 29.5t-13.5 29.5t-32.5 12.5t-33 -12.5
t-14 -29.5z" />
    <glyph glyph-name="l" unicode="l" horiz-adv-x="719" 
d="M231 60q17 0 31 13.5t14 32.5q0 18 -14.5 32.5t-31.5 14.5q-18 -1 -32 -15t-14 -32q1 -19 15 -32.5t32 -13.5zM435 58q17 0 32.5 14.5t15.5 32.5q-1 18 -16.5 32.5t-32.5 14.5q-18 0 -33 -14.5t-15 -33.5q0 -18 15.5 -32t33.5 -14zM649 213q0 42 9 141q9 98 9 141
q0 66 -15 100q-10 24 -25.5 49t-31 44t-28 31t-15.5 12q0 2 -27 5t-61 6.5t-67 6t-41 2.5q-11 3 -39.5 5t-69.5 3.5t-80.5 2t-74.5 0.5q-25 0 -62 -1h-12q72 0 145.5 -71.5t134.5 -174t99 -197.5t38 -130q0 18 1 40t3 56q3 67 3 88q-4 35 -19 72t-40 88v1q-3 5 -17 30
q-23 43 -41 70.5t-31 29.5q15 0 46.5 -0.5t67 -2t64 -5t33.5 -8.5q19 -10 34 -33.5t31 -55.5l6 -12q6 -13 18.5 -53.5t25 -91t21 -101.5t8.5 -87z" />
    <glyph glyph-name="m" unicode="m" 
d="M136 111q-14 0 -26 -12t-12 -27t12.5 -27t26.5 -12q15 0 26.5 12t11.5 27t-12 27t-27 12zM490 644q-21 0 -28 -32t-7 -92q0 -14 5.5 -51.5t12.5 -75t12 -62.5t7 -37q12 0 19 27t10.5 68t4.5 84t1 92v6q-1 30 -6 46q-4 12 -11.5 19.5t-19.5 7.5zM293 641q-13 0 -21 -21
t-12.5 -51.5t-6 -54t-2.5 -53.5v-1q0 -47 1 -93.5t4.5 -94.5t11 -80t19.5 -32q14 0 22.5 37t13.5 89.5t6.5 98t1.5 70.5q0 27 -1.5 58.5t-5.5 60.5t-12 48t-19 19zM136 640q-12 0 -20 -20.5t-12.5 -51.5t-6 -62t-1.5 -55q0 -43 1 -88.5t4.5 -95t11.5 -84.5t21 -35
q10 2 16 27.5t9 68.5t4 92.5t1 121.5v21q1 20 1 34q0 23 -1.5 45.5t-4.5 41t-8.5 29.5t-14.5 11zM287 112q-14 0 -26 -12t-12 -27t12 -27t27 -12t26.5 12t11.5 27t-12 27t-27 12zM488 110q-14 0 -26 -12t-12 -27t12.5 -27t26.5 -12q15 0 26.5 12t11.5 27q0 16 -12 27.5
t-27 11.5z" />
    <glyph glyph-name="n" unicode="n" horiz-adv-x="572" 
d="M145 108q-14 0 -26 -11.5t-12 -27.5q0 -15 12.5 -27t26.5 -12q15 0 26.5 12t11.5 27q0 16 -12 27.5t-27 11.5zM275 339q-14 0 -26 -12t-12 -27t12 -27t27 -12t26.5 12t11.5 27t-12 27t-27 12zM417 107q-14 0 -26 -11.5t-12 -27.5q0 -15 12.5 -27t26.5 -12q15 0 26.5 12
t11.5 27q0 16 -12 27.5t-27 11.5z" />
    <glyph glyph-name="o" unicode="o" horiz-adv-x="435" 
d="M122 622q-25 0 -31.5 -69.5t-7.5 -254.5q0 -37 2 -83.5t7 -88.5t13.5 -70t20.5 -28q14 0 22 25.5t11.5 63.5t4.5 69t1 59q0 122 -2 193.5t-6.5 111t-13 56t-21.5 16.5zM319 625q-12 0 -20 -22.5t-13 -59t-7 -79t-2 -87.5q0 -13 5.5 -48t12.5 -73t13.5 -73t9.5 -48
q12 0 19.5 24t11 60t4.5 77t1 85q0 20 -5 58t-11.5 78.5t-11.5 68.5t-7 39zM316 800q-14 0 -25 -11.5t-11 -26.5t11 -26t25 -11t24.5 10.5t10.5 26.5t-10.5 27t-24.5 11z" />
    <glyph glyph-name="p" unicode="p" horiz-adv-x="560" 
d="M187 144q0 -19 15.5 -33t35.5 -14q21 0 36.5 14t15.5 33t-15.5 32.5t-36.5 13.5q-20 0 -35.5 -13.5t-15.5 -32.5zM334 144q0 -19 15.5 -33t36.5 -14t36.5 14t15.5 33t-15.5 32.5t-36.5 13.5t-36.5 -13.5t-15.5 -32.5zM171 832q-26 0 -49 -21.5t-40.5 -60t-27 -89.5
t-9.5 -109q0 -59 10.5 -113.5t30 -97t47 -66.5t60.5 -24q-9 1 -17 22.5t-18 58.5q-2 11 -4 16q-8 36 -10 76.5t-2 125.5q0 113 10 197.5t19 84.5zM315 830q-26 0 -49.5 -21t-41.5 -59.5t-28 -89.5t-10 -110t12 -114t34 -98.5t51.5 -68.5t62.5 -25q-5 0 -12.5 12t-16 30.5
t-13 32t-9.5 27.5q-10 42 -14 90t-4 117q0 56 4 107t10.5 89t13 59.5t10.5 21.5zM496 830q-27 0 -55.5 -21.5t-53 -59.5t-39.5 -89t-15 -107q0 -59 12.5 -113.5t35 -97.5t52.5 -67.5t63 -24.5q-10 1 -18 23.5t-16 58.5q-4 14 -4 15q-9 39 -11.5 85t-2.5 126q0 57 6.5 108
t15 87t17.5 56.5t13 20.5z" />
    <glyph glyph-name="q" unicode="q" 
d="M488 110q-14 0 -26 -12t-12 -27t12.5 -27t26.5 -12q15 0 26.5 12t11.5 27q0 16 -12 27.5t-27 11.5zM287 112q-14 0 -26 -12t-12 -27t12 -27t27 -12t26.5 12t11.5 27t-12 27t-27 12zM136 640q-12 0 -20 -20.5t-12.5 -51.5t-6 -62t-1.5 -55q0 -43 1 -88.5t4.5 -95
t11.5 -84.5t21 -35q10 2 16 27.5t9 68.5t4 92.5t1 121.5v21q1 20 1 34q0 23 -1.5 45.5t-4.5 41t-8.5 29.5t-14.5 11zM293 641q-13 0 -21 -21t-12.5 -51.5t-6 -54t-2.5 -53.5v-1q0 -47 1 -93.5t4.5 -94.5t11 -80t19.5 -32q14 0 22.5 37t13.5 89.5t6.5 98t1.5 70.5
q0 27 -1.5 58.5t-5.5 60.5t-12 48t-19 19zM136 111q-14 0 -26 -12t-12 -27t12.5 -27t26.5 -12q15 0 26.5 12t11.5 27t-12 27t-27 12z" />
    <glyph glyph-name="r" unicode="r" horiz-adv-x="840" 
d="M362 65q0 -16 14 -29t33 -13q18 0 29.5 13t11.5 30t-11.5 28.5t-29.5 12.5q-19 0 -33 -12.5t-14 -29.5zM132 59q0 -17 13.5 -29.5t32.5 -12.5q20 1 33.5 13.5t13.5 29.5t-14 29.5t-33 12.5t-32.5 -12.5t-13.5 -30.5zM128 618q36 0 65 -20t51.5 -55.5t40 -78.5t40.5 -110
q9 -27 22 -64q12 -37 21 -64q3 -12 13 -35t15 -39t5 -35q0 28 7.5 59t23.5 82q17 56 24 86q25 106 62 212.5t81.5 196t92.5 143.5t95 54q-65 0 -129.5 -42.5t-116 -103.5t-83.5 -115.5t-32 -70.5h-298z" />
    <glyph glyph-name="s" unicode="s" horiz-adv-x="822" 
d="M300 94q-15 0 -25 -11.5t-11 -26.5q1 -16 11.5 -28t23.5 -12q15 0 25 11.5t10 27.5t-10 27.5t-24 11.5zM66 317q-14 0 -24 -11t-11 -27q0 -16 10 -27.5t24 -11.5q15 0 25.5 11.5t10.5 26.5q0 16 -10 27.5t-25 11.5zM67 860q-15 0 -25.5 -11.5t-10.5 -26.5q0 -16 10 -27
t25 -12q15 1 24.5 12t10.5 27q0 15 -10 26.5t-24 11.5zM215 212l107 -50h-12q80 0 158.5 24t142 71.5t101.5 118.5t38 161q0 95 -34 164t-83 111t-96.5 61.5t-74.5 20.5h-93l-103 -23l-80 -49q114 0 188 -34t112 -83t51.5 -94t13.5 -75q-1 -48 -24 -104.5t-67 -106.5
t-106.5 -81.5t-138.5 -31.5z" />
    <glyph glyph-name="t" unicode="t" horiz-adv-x="980" 
d="M338 530q0 -16 14 -29t33 -13t32.5 12.5t13.5 29.5t-13.5 29.5t-32.5 12.5t-33 -12.5t-14 -29.5zM46 796q0 -16 14 -29t33 -13t33 13t14 29q0 17 -14 29.5t-33 12.5t-33 -12.5t-14 -29.5zM246 77q30 -6 60 -6q44 0 83 12.5t68.5 31.5t49 37t38.5 38q12 12 14 13
q10 2 47 44t83 99.5t81.5 105.5t40.5 59q5 0 16 22t24.5 54t24 59.5t13.5 37.5q20 40 31 83.5t12 117.5q-3 -11 -35 -18t-86 -11.5t-117 -6.5t-135 -2q-52 0 -106.5 1t-102.5 2.5t-75 3.5t-33 3q1 0 2 -7q3 -11 7.5 -23t12.5 -25.5t22.5 -24t33.5 -14.5q15 -2 45.5 -4
t69.5 -3.5t73 -2.5t57 -1q9 0 26 1h5h3q9 1 15 1h30q36 -1 51 -1q44 0 72.5 3.5t32.5 12.5q-2 -9 -15.5 -38t-30.5 -61t-32 -58.5t-18 -28.5q-3 -3 -23 -36q-11 -18 -16 -25.5t-7 -9.5q-18 -27 -62 -88.5t-110 -143.5t-130.5 -143t-102.5 -61q-2 0 -4 1h-3zM47 529
q0 -17 13.5 -29.5t32.5 -12.5q20 1 33.5 13.5t13.5 29.5t-14 29.5t-33 12.5t-32.5 -12.5t-13.5 -30.5z" />
    <glyph glyph-name="u" unicode="u" horiz-adv-x="803" 
d="M204 88l107 -50h-12q80 0 158.5 24t142 71.5t101.5 118.5t38 161q0 95 -34 164t-83 111t-96.5 61.5t-74.5 20.5h-93l-103 -23l-80 -49q114 0 188 -34t112 -83t51.5 -94t13.5 -75q-1 -48 -24 -104.5t-67 -106.5t-106.5 -81.5t-138.5 -31.5zM57 613q-15 0 -25.5 -11.5
t-10.5 -26.5q0 -16 10 -27t25 -12q15 1 24.5 12t10.5 27q0 15 -10 26.5t-24 11.5zM55 193q-14 0 -24 -11t-11 -27q0 -16 10 -27.5t24 -11.5q15 0 25.5 11.5t10.5 26.5q0 16 -10 27.5t-25 11.5zM52 893q-15 0 -25 -11.5t-11 -26.5q1 -16 11.5 -28t23.5 -12q15 0 25 11.5
t10 27.5t-10 27.5t-24 11.5z" />
    <glyph glyph-name="v" unicode="v" horiz-adv-x="946" 
d="M185 528q0 -16 7 -23.5t33.5 -12t84.5 -6t169 -1.5q29 0 89.5 2t128.5 7t117 15.5t49 26.5q0 9 -28.5 16t-78 12.5t-109.5 8t-123 2.5q-169 0 -254 -10.5t-85 -36.5zM198 170q0 -15 12 -23.5t47.5 -14t101.5 -8t182 -2.5q27 0 86 2t125 7t114.5 14.5t48.5 22.5
q0 12 -48 21t-117 15.5t-131 9.5t-82 3q-169 0 -254 -10.5t-85 -36.5zM323 402q-22 0 -37.5 -15.5t-15.5 -37.5t15.5 -37.5t37.5 -15.5t37.5 15.5t15.5 37.5t-15.5 37.5t-37.5 15.5z" />
    <glyph glyph-name="w" unicode="w" 
d="M460 109q-14 0 -26 -12t-12 -27q0 -16 12.5 -27.5t26.5 -11.5q15 0 26.5 11.5t11.5 27.5q0 15 -12 27t-27 12zM136 640q-12 0 -20 -20.5t-12.5 -51.5t-6 -62t-1.5 -55q0 -29 1 -68.5t4.5 -86t11.5 -81t21 -34.5q10 2 16 27t9 64.5t4 83t1 102.5v21q1 20 1 34
q0 23 -1.5 45.5t-4.5 41t-8.5 29.5t-14.5 11zM293 641q-13 0 -21 -21t-12.5 -51.5t-6 -54t-2.5 -53.5v-1q0 -33 1 -74t4.5 -86t11 -76t19.5 -31q14 0 22.5 36t13.5 85.5t6.5 89t1.5 51.5q0 27 -1.5 58.5t-5.5 60.5t-12 48t-19 19zM462 641q-21 0 -28 -32t-7 -92
q-3 -56 -3 -110q0 -35 5 -70.5t11.5 -65.5t11.5 -47t7 -23q11 0 18 24.5t11 66.5t5.5 87t4.5 131q0 18 1 52v5q-1 31 -6 46q-4 13 -11.5 20.5t-19.5 7.5z" />
    <glyph glyph-name="x" unicode="x" horiz-adv-x="541" 
d="M462 641q-21 0 -28 -32t-7 -92q-3 -56 -3 -110q0 -35 5 -70.5t11.5 -65.5t11.5 -47t7 -23q11 0 18 24.5t11 66.5t5.5 87t4.5 131q0 18 1 52v5q-1 31 -6 46q-4 13 -11.5 20.5t-19.5 7.5zM293 641q-13 0 -21 -21t-12.5 -51.5t-6 -54t-2.5 -53.5v-1q0 -33 1 -74t4.5 -86
t11 -76t19.5 -31q14 0 22.5 36t13.5 85.5t6.5 89t1.5 51.5q0 27 -1.5 58.5t-5.5 60.5t-12 48t-19 19zM136 640q-12 0 -20 -20.5t-12.5 -51.5t-6 -62t-1.5 -55q0 -29 1 -68.5t4.5 -86t11.5 -81t21 -34.5q10 2 16 27t9 64.5t4 83t1 102.5v21q1 20 1 34q0 23 -1.5 45.5t-4.5 41
t-8.5 29.5t-14.5 11zM287 106q-14 0 -26 -12t-12 -27q0 -16 12.5 -27.5t26.5 -11.5q15 0 26.5 11.5t11.5 27.5q0 15 -12 27t-27 12zM137 112q-14 0 -26 -12t-12 -27q0 -16 12.5 -27.5t26.5 -11.5q15 0 26.5 11.5t11.5 27.5q0 15 -12 27t-27 12z" />
    <glyph glyph-name="y" unicode="y" horiz-adv-x="971" 
d="M185 528q0 -16 7 -23.5t33.5 -12t84.5 -6t169 -1.5q29 0 89.5 2t128.5 7t117 15.5t49 26.5q0 9 -28.5 16t-78 12.5t-109.5 8t-123 2.5q-169 0 -254 -10.5t-85 -36.5zM22 525q0 -14 11.5 -24.5t27.5 -10.5t27.5 10.5t11.5 24.5t-11.5 24.5t-27.5 10.5t-27.5 -10.5
t-11.5 -24.5zM192 350q0 -14 16 -21.5t52.5 -11.5t95.5 -5.5t158 -1.5q43 0 88 1t94 4.5t83.5 11.5t34.5 21q0 12 -34 21t-85 15.5t-97.5 9.5t-66.5 3q-62 0 -120.5 -2t-108.5 -7.5t-80 -15t-30 -22.5zM29 347q0 -14 11.5 -24.5t27.5 -10.5t27.5 10.5t11.5 24.5t-11.5 24.5
t-27.5 10.5t-27.5 -10.5t-11.5 -24.5zM198 170q0 -15 12 -23.5t47.5 -14t101.5 -8t182 -2.5q27 0 86 2t125 7t114.5 14.5t48.5 22.5q0 12 -48 21t-117 15.5t-131 9.5t-82 3q-169 0 -254 -10.5t-85 -36.5z" />
    <glyph glyph-name="z" unicode="z" horiz-adv-x="822" 
d="M438 84q29 0 49.5 18t20.5 43t-20.5 43t-49.5 18t-49.5 -18t-20.5 -43t20.5 -43t49.5 -18zM109 473q29 0 49.5 18t20.5 43t-20.5 43t-49.5 18t-49.5 -18t-20.5 -43t20.5 -43t49.5 -18zM711 65l40 55q0 15 3 69q4 57 6 100t2 89q0 90 -11 157.5t-38 99.5q-31 38 -92.5 64
t-145 41t-177.5 21.5t-200 6.5l-47 -26l52 -30q93 0 168.5 -19t132.5 -50.5t99 -69.5t79 -84q28 -33 46.5 -84t28.5 -107t14 -105t4 -85zM438 358q34 0 58.5 24.5t24.5 56.5q0 31 -25.5 56.5t-59.5 25.5t-58.5 -25.5t-24.5 -56.5t25.5 -56t59.5 -25z" />
    <glyph glyph-name="braceleft" unicode="{" 
 />
    <glyph glyph-name="bar" unicode="|" 
 />
    <glyph glyph-name="braceright" unicode="}" 
 />
    <glyph glyph-name="asciitilde" unicode="~" 
 />
    <glyph glyph-name="quotesinglbase" unicode="&#x201a;" 
 />
    <glyph glyph-name="florin" unicode="&#x192;" 
 />
    <glyph glyph-name="quotedblbase" unicode="&#x201e;" 
 />
    <glyph glyph-name="ellipsis" unicode="&#x2026;" 
 />
    <glyph glyph-name="dagger" unicode="&#x2020;" 
 />
    <glyph glyph-name="daggerdbl" unicode="&#x2021;" 
 />
    <glyph glyph-name="circumflex" unicode="&#x2c6;" 
 />
    <glyph glyph-name="perthousand" unicode="&#x2030;" 
 />
    <glyph glyph-name="Scaron" unicode="&#x160;" 
 />
    <glyph glyph-name="guilsinglleft" unicode="&#x2039;" 
 />
    <glyph glyph-name="OE" unicode="&#x152;" 
 />
    <glyph glyph-name="quoteleft" unicode="&#x2018;" 
 />
    <glyph glyph-name="quoteright" unicode="&#x2019;" 
 />
    <glyph glyph-name="quotedblleft" unicode="&#x201c;" 
 />
    <glyph glyph-name="quotedblright" unicode="&#x201d;" 
 />
    <glyph glyph-name="bullet" unicode="&#x2022;" 
 />
    <glyph glyph-name="endash" unicode="&#x2013;" 
 />
    <glyph glyph-name="emdash" unicode="&#x2014;" 
 />
    <glyph glyph-name="tilde" unicode="&#x2dc;" 
 />
    <glyph glyph-name="trademark" unicode="&#x2122;" 
 />
    <glyph glyph-name="scaron" unicode="&#x161;" 
 />
    <glyph glyph-name="guilsinglright" unicode="&#x203a;" 
 />
    <glyph glyph-name="oe" unicode="&#x153;" 
 />
    <glyph glyph-name="Ydieresis" unicode="&#x178;" 
 />
    <glyph glyph-name="exclamdown" unicode="&#xa1;" 
 />
    <glyph glyph-name="cent" unicode="&#xa2;" 
 />
    <glyph glyph-name="sterling" unicode="&#xa3;" 
 />
    <glyph glyph-name="currency" unicode="&#xa4;" 
 />
    <glyph glyph-name="yen" unicode="&#xa5;" 
 />
    <glyph glyph-name="brokenbar" unicode="&#xa6;" 
 />
    <glyph glyph-name="section" unicode="&#xa7;" 
 />
    <glyph glyph-name="dieresis" unicode="&#xa8;" 
 />
    <glyph glyph-name="copyright" unicode="&#xa9;" 
 />
    <glyph glyph-name="ordfeminine" unicode="&#xaa;" 
 />
    <glyph glyph-name="guillemotleft" unicode="&#xab;" 
 />
    <glyph glyph-name="logicalnot" unicode="&#xac;" 
 />
    <glyph glyph-name="minus" unicode="&#xad;" 
 />
    <glyph glyph-name="minus" unicode="&#x2212;" 
 />
    <glyph glyph-name="registered" unicode="&#xae;" 
 />
    <glyph glyph-name="macron" unicode="&#xaf;" 
 />
    <glyph glyph-name="degree" unicode="&#xb0;" 
 />
    <glyph glyph-name="plusminus" unicode="&#xb1;" 
 />
    <glyph glyph-name="twosuperior" unicode="&#xb2;" 
 />
    <glyph glyph-name="threesuperior" unicode="&#xb3;" 
 />
    <glyph glyph-name="acute" unicode="&#xb4;" 
 />
    <glyph glyph-name="mu" unicode="&#xb5;" 
 />
    <glyph glyph-name="paragraph" unicode="&#xb6;" 
 />
    <glyph glyph-name="periodcentered" unicode="&#xb7;" 
 />
    <glyph glyph-name="periodcentered" unicode="&#x2219;" 
 />
    <glyph glyph-name="cedilla" unicode="&#xb8;" 
 />
    <glyph glyph-name="onesuperior" unicode="&#xb9;" 
 />
    <glyph glyph-name="ordmasculine" unicode="&#xba;" 
 />
    <glyph glyph-name="guillemotright" unicode="&#xbb;" 
 />
    <glyph glyph-name="onequarter" unicode="&#xbc;" 
 />
    <glyph glyph-name="onehalf" unicode="&#xbd;" 
 />
    <glyph glyph-name="threequarters" unicode="&#xbe;" 
 />
    <glyph glyph-name="questiondown" unicode="&#xbf;" 
 />
    <glyph glyph-name="Agrave" unicode="&#xc0;" 
 />
    <glyph glyph-name="Aacute" unicode="&#xc1;" 
 />
    <glyph glyph-name="Acircumflex" unicode="&#xc2;" 
 />
    <glyph glyph-name="Atilde" unicode="&#xc3;" 
 />
    <glyph glyph-name="Adieresis" unicode="&#xc4;" 
 />
    <glyph glyph-name="Aring" unicode="&#xc5;" 
 />
    <glyph glyph-name="AE" unicode="&#xc6;" 
 />
    <glyph glyph-name="Ccedilla" unicode="&#xc7;" 
 />
    <glyph glyph-name="Egrave" unicode="&#xc8;" 
 />
    <glyph glyph-name="Eacute" unicode="&#xc9;" 
 />
    <glyph glyph-name="Ecircumflex" unicode="&#xca;" 
 />
    <glyph glyph-name="Edieresis" unicode="&#xcb;" 
 />
    <glyph glyph-name="Igrave" unicode="&#xcc;" 
 />
    <glyph glyph-name="Iacute" unicode="&#xcd;" 
 />
    <glyph glyph-name="Icircumflex" unicode="&#xce;" 
 />
    <glyph glyph-name="Idieresis" unicode="&#xcf;" 
 />
    <glyph glyph-name="Eth" unicode="&#xd0;" 
 />
    <glyph glyph-name="Ntilde" unicode="&#xd1;" 
 />
    <glyph glyph-name="Ograve" unicode="&#xd2;" 
 />
    <glyph glyph-name="Oacute" unicode="&#xd3;" 
 />
    <glyph glyph-name="Ocircumflex" unicode="&#xd4;" 
 />
    <glyph glyph-name="Otilde" unicode="&#xd5;" 
 />
    <glyph glyph-name="Odieresis" unicode="&#xd6;" 
 />
    <glyph glyph-name="multiply" unicode="&#xd7;" 
 />
    <glyph glyph-name="Oslash" unicode="&#xd8;" 
 />
    <glyph glyph-name="Ugrave" unicode="&#xd9;" 
 />
    <glyph glyph-name="Uacute" unicode="&#xda;" 
 />
    <glyph glyph-name="Ucircumflex" unicode="&#xdb;" 
 />
    <glyph glyph-name="Udieresis" unicode="&#xdc;" 
 />
    <glyph glyph-name="Yacute" unicode="&#xdd;" 
 />
    <glyph glyph-name="Thorn" unicode="&#xde;" 
 />
    <glyph glyph-name="germandbls" unicode="&#xdf;" 
 />
    <glyph glyph-name="agrave" unicode="&#xe0;" 
 />
    <glyph glyph-name="aacute" unicode="&#xe1;" 
 />
    <glyph glyph-name="acircumflex" unicode="&#xe2;" 
 />
    <glyph glyph-name="atilde" unicode="&#xe3;" 
 />
    <glyph glyph-name="adieresis" unicode="&#xe4;" 
 />
    <glyph glyph-name="aring" unicode="&#xe5;" 
 />
    <glyph glyph-name="ae" unicode="&#xe6;" 
 />
    <glyph glyph-name="ccedilla" unicode="&#xe7;" 
 />
    <glyph glyph-name="egrave" unicode="&#xe8;" 
 />
    <glyph glyph-name="eacute" unicode="&#xe9;" 
 />
    <glyph glyph-name="ecircumflex" unicode="&#xea;" 
 />
    <glyph glyph-name="edieresis" unicode="&#xeb;" 
 />
    <glyph glyph-name="igrave" unicode="&#xec;" 
 />
    <glyph glyph-name="iacute" unicode="&#xed;" 
 />
    <glyph glyph-name="icircumflex" unicode="&#xee;" 
 />
    <glyph glyph-name="idieresis" unicode="&#xef;" 
 />
    <glyph glyph-name="eth" unicode="&#xf0;" 
 />
    <glyph glyph-name="ntilde" unicode="&#xf1;" 
 />
    <glyph glyph-name="ograve" unicode="&#xf2;" 
 />
    <glyph glyph-name="oacute" unicode="&#xf3;" 
 />
    <glyph glyph-name="ocircumflex" unicode="&#xf4;" 
 />
    <glyph glyph-name="otilde" unicode="&#xf5;" 
 />
    <glyph glyph-name="odieresis" unicode="&#xf6;" 
 />
    <glyph glyph-name="divide" unicode="&#xf7;" 
 />
    <glyph glyph-name="oslash" unicode="&#xf8;" 
 />
    <glyph glyph-name="ugrave" unicode="&#xf9;" 
 />
    <glyph glyph-name="uacute" unicode="&#xfa;" 
 />
    <glyph glyph-name="ucircumflex" unicode="&#xfb;" 
 />
    <glyph glyph-name="udieresis" unicode="&#xfc;" 
 />
    <glyph glyph-name="yacute" unicode="&#xfd;" 
 />
    <glyph glyph-name="thorn" unicode="&#xfe;" 
 />
    <glyph glyph-name="ydieresis" unicode="&#xff;" 
 />
  </font>
</defs>
</svg>
